<?xml version="1.0" standalone="no"?>
<!DOCTYPE svg PUBLIC "-//W3C//DTD SVG 1.1//EN" "http://www.w3.org/Graphics/SVG/1.1/DTD/svg11.dtd" >
<!--
2013-9-30: Created.
-->
<svg>
<metadata>
Created by iconfont
</metadata>
<defs>

<font id="iconfont" horiz-adv-x="1024" >
  <font-face
    font-family="iconfont"
    font-weight="500"
    font-stretch="normal"
    units-per-em="1024"
    ascent="896"
    descent="-128"
  />
    <missing-glyph />
    
    <glyph glyph-name="jia" unicode="&#59026;" d="M511.968 832.192c-247.104 0-448.16-201.024-448.16-448.192 0-247.104 201.056-448.16 448.16-448.16 247.168 0 448.192 201.056 448.192 448.16C960.16 631.168 759.104 832.192 511.968 832.192zM716.672 339.232 556.704 339.232l0-159.872c0-24.672-19.968-44.832-44.736-44.832-24.672 0-44.704 20.16-44.704 44.832l0 159.872-160 0c-24.736 0-44.8 20.128-44.8 44.8 0 24.736 20.064 44.768 44.8 44.768l160 0 0 159.936c0 24.736 20.032 44.768 44.704 44.768 24.8 0 44.736-20.032 44.736-44.768L556.704 428.8l159.968 0c24.768 0 44.832-20.032 44.832-44.768C761.536 359.328 741.44 339.232 716.672 339.232z"  horiz-adv-x="1024" />

    
    <glyph glyph-name="shoucang" unicode="&#58895;" d="M327.728136 91.698724l150.60509 60.966537 33.721009 13.627369 33.721009-13.627369 150.609183-60.914348-4.484128 166.562527-0.907673 32.985252 20.663622 25.711592 96.563266 120.353089L652.842749 484.425224l-30.030967 9.081843-17.825994 25.716708-92.931552 134.033669-92.871177-134.033669-17.825994-25.716708-30.033014-9.081843-155.490354-47.120181 96.566336-120.29476 20.663622-25.711592-0.907673-32.985252L327.728136 91.698724M789.940197-43.129031 512.054235 69.272969 234.17339-43.129031l8.115841 303.886125L62.389956 484.824313l282.879696 85.667102L512.054235 811.130054l166.843936-240.638639 282.711873-85.667102L781.766027 260.756071 789.940197-43.129031 789.940197-43.129031 789.940197-43.129031z"  horiz-adv-x="1024" />

    
    <glyph glyph-name="shuju" unicode="&#59225;" d="M992.144478 49.697121H129.041982c-31.143301 0-57.837266 26.693965-57.837267 57.837267V761.534496c0 17.795295-17.796318 35.59059-35.591613 35.590589s-35.591613-17.795295-35.591613-35.590589v-649.551796c0-71.183226 57.837266-129.020492 129.020493-129.020492h858.653161c17.795295 0 35.59059 17.795295 35.590589 35.590589 4.450359 17.797341-13.344936 31.144324-31.141254 31.144324M453.817879 676.964378c-13.346983 0-22.24463-4.449335-31.1433-13.346983L222.470861 467.86199c-13.346983-13.346983-13.346983-35.591613 0-48.938596s35.59059-13.346983 48.938595 0L449.368544 596.882482l177.959088-177.959088c13.346983-13.346983 35.59059-13.346983 48.938595 0l4.449336 4.449335c4.449335 0 4.449335 4.449335 8.897647 4.449336L969.898825 708.107679c13.346983 13.346983 13.346983 35.591613 0 48.938596s-35.591613 13.346983-48.938596 0l-266.939655-266.939655-173.508729 173.510775c-4.449335 8.897647-17.796318 13.346983-26.693966 13.346983z"  horiz-adv-x="1024" />

    
    <glyph glyph-name="aixinsan" unicode="&#58892;" d="M110.276923 403.692308c-15.753846-15.753846-39.384615 0-35.446154 19.692307v3.938462c23.630769 98.461538 78.769231 185.107692 157.538462 248.123077C315.076923 738.461538 409.6 773.907692 512 773.907692c204.8 0 382.030769-137.846154 437.169231-330.830769 7.876923-19.692308-19.692308-35.446154-35.446154-23.630769-35.446154 27.569231-78.769231 39.384615-122.092308 39.384615-47.261538 0-86.646154-15.753846-126.030769-43.323077l-11.815385-11.815384-11.815384 11.815384c-35.446154 27.569231-82.707692 43.323077-129.969231 43.323077-43.323077 0-82.707692-15.753846-118.153846-39.384615l-11.815385-7.876923-11.815384 7.876923c-35.446154 23.630769-74.830769 39.384615-118.153847 39.384615-55.138462 0-102.4-19.692308-141.784615-55.138461zM512 502.153846c51.2 0 98.461538-15.753846 137.846154-43.323077 39.384615 27.569231 86.646154 43.323077 137.846154 43.323077 31.507692 0 66.953846-7.876923 94.523077-19.692308-63.015385 145.723077-208.738462 244.184615-370.215385 244.184616-165.415385 0-311.138462-98.461538-374.153846-248.123077 35.446154 15.753846 74.830769 23.630769 110.276923 23.630769 47.261538 0 90.584615-11.815385 133.907692-39.384615 39.384615 27.569231 86.646154 39.384615 129.969231 39.384615z m0 0M358.4 439.138462c-19.692308 236.307692 137.846154 330.830769 141.784615 334.76923l23.63077-39.384615-11.815385 15.753846 11.815385-19.692308c-3.938462-3.938462-137.846154-82.707692-122.092308-291.446153H358.4z m0 0M673.476923 439.138462l-47.261538 3.938461c15.753846 208.738462-114.215385 287.507692-122.092308 291.446154l23.630769 39.384615c7.876923-7.876923 161.476923-98.461538 145.723077-334.76923z m0 0M512 738.461538c-11.815385 0-23.630769 11.815385-23.630769 23.63077V809.353846c0 11.815385 11.815385 23.630769 23.630769 23.630769s23.630769-11.815385 23.630769-23.630769v-47.261538c0-11.815385-11.815385-23.630769-23.630769-23.63077zM405.661538-72.861538c-66.953846 0-126.030769 47.261538-137.846153 110.276923-3.938462 15.753846 7.876923 27.569231 23.630769 27.56923 11.815385 0 19.692308-7.876923 23.630769-19.692307 7.876923-43.323077 47.261538-74.830769 94.523077-70.892308 51.2 0 86.646154 43.323077 86.646154 94.523077V474.584615h47.261538V68.923077c-3.938462-74.830769-63.015385-137.846154-137.846154-141.784615z"  horiz-adv-x="1024" />

    
    <glyph glyph-name="xinaixin" unicode="&#58880;" d="M1066.676053 794.9735880000001c-132.56139 130.498038-343.832225 135.141859-481.999992 10.598358-138.162647 124.543502-349.438602 119.89968-481.994872-10.598358-135.321059-133.534186-136.764893-351.486594-3.230707-486.802533 1.070076-1.085436 2.145271-2.160631 3.230707-3.230707l403.792305-400.136639c42.43439-43.192147 111.840833-43.806545 155.02786-1.377275 0.460798 0.455678 0.921596 0.916476 1.372155 1.377275l403.797424 399.768001c135.418338 133.436906 137.031132 351.384194 3.594226 486.802533-1.182715 1.208315-2.38591 2.40639-3.589106 3.599345z m-52.259631-438.516006l-403.792304-400.136639a36.541294 36.541294 0 0 0-51.675954-0.209919l-0.215039 0.209919-404.160943 400.136639C47.713089 461.94452 46.591814 634.083352 152.073632 740.942444c0.829437 0.839677 1.663993 1.674233 2.50367 2.50367C259.746801 845.861065 426.514774 848.584894 534.98154 749.656649l49.699641-42.751829 49.331003 42.751829c108.948044 98.431606 275.721137 94.90394 380.409358-8.038367 106.357335-105.988696 106.659413-278.132647 0.670718-384.489983l-0.675838-0.670717zM338.015928 713.115356c-85.769897 0-155.304339-69.534442-155.304339-155.304339a18.273207 18.273207 0 0 1 36.541294 0c0 65.592058 53.170987 118.763045 118.763045 118.763045a18.278327 18.278327 0 0 1 0 36.541294zM226.600054 821.756201L101.160555 737.276539l-51.199795-184.319263 88.319647-212.47915 316.158735-332.798669 112.63955-84.479662 69.119723 23.039908 209.919161 220.159119 199.679201 174.079304 81.919672 248.319007-161.279355 232.959068-258.558966 12.799949-123.104787-79.359683-53.534506 40.959836-174.95994 46.079816z"  horiz-adv-x="1169" />

    
    <glyph glyph-name="yinfu" unicode="&#58911;" d="M780.6 522.6l-377-63.3V618l377 63.2zM774.6 622.9l-365.1-63.3v29.9l365.1 63.3zM774.6 551l-365.1-63.2v29.9L774.6 581zM586.646123 141.821471a102 69.5 20.653 1 1 190.88967 71.952305 102 69.5 20.653 1 1-190.88967-71.952305ZM731.2 656.2h49.5v-463.6h-49.5zM258.927591 95.915179a102 69.5 20.653 1 1 190.88967 71.952305 102 69.5 20.653 1 1-190.88967-71.952305ZM403.5 610.2H453v-463.6h-49.5z"  horiz-adv-x="1024" />

    
    <glyph glyph-name="yinfu1" unicode="&#58889;" d="M526.976 543.701333a21.333333 21.333333 0 0 0-8.533333-25.941333l-3.434667-1.749333L426.666667 481.066667V106.666667a64 64 0 0 0-57.834667-63.701334L362.666667 42.666667a64 64 0 1 0 21.354666 124.352L384 495.552a21.333333 21.333333 0 0 0 10.176 18.176l3.306667 1.664 101.802666 40.298667a21.333333 21.333333 0 0 0 27.690667-11.989334zM738.816 626.346667a21.333333 21.333333 0 0 0-8.64-25.92l-3.434667-1.706667-78.570666-30.784a21.333333 21.333333 0 0 0-19.008 37.994667l3.456 1.706666 78.549333 30.805334a21.333333 21.333333 0 0 0 27.648-12.096zM745.173333 733.184a21.333333 21.333333 0 0 0-8.533333-25.962667l-3.456-1.706666L597.333333 651.733333l-0.085333-415.530666L597.333333 234.666667a64 64 0 0 0-57.834666-63.701334L533.333333 170.666667a64 64 0 1 0 21.333334 124.373333V666.218667a21.333333 21.333333 0 0 0 10.176 18.176l3.306666 1.664 149.333334 59.093333a21.333333 21.333333 0 0 0 27.690666-11.946667z"  horiz-adv-x="1024" />

    
    <glyph glyph-name="fenxiang" unicode="&#58926;" d="M999.9 496.3l-384.1 293c-33.3 20.1-75.8-3.9-75.8-42.8v-584.1c0-38.9 42.5-62.9 75.8-42.8l384.1 291c32.2 19.5 32.2 66.3 0 85.7zM2-28s-51 589 548 619.9v-276S181.5 377.5 2-28z"  horiz-adv-x="1024" />

    
    <glyph glyph-name="shezhi" unicode="&#58921;" d="M479.1-55.1l-332.6 192c-20 11.5-32.3 32.8-32.3 55.9v384c0 23.1 12.3 44.4 32.3 55.9l332.6 192c20 11.5 44.6 11.5 64.5 0l332.6-192c20-11.5 32.3-32.8 32.3-55.9v-384c0-23.1-12.3-44.4-32.3-55.9l-332.6-192c-20-11.5-44.6-11.5-64.5 0zM221.6 180.3l257.5-148.6c20-11.5 44.6-11.5 64.6 0l257.5 148.6c20 11.5 32.3 32.8 32.3 55.9V533.5c0 23.1-12.3 44.4-32.3 55.9L543.6 738c-20 11.5-44.6 11.5-64.6 0L221.6 589.4c-20-11.5-32.3-32.8-32.3-55.9v-297.3c0-23.1 12.3-44.4 32.3-55.9zM511.3 224.9c-88.2 0-160 71.8-160 160s71.8 160 160 160 160-71.8 160-160-71.8-160-160-160z m0 239.9c-44.1 0-80-35.9-80-80s35.9-80 80-80 80 35.9 80 80-35.9 80-80 80z"  horiz-adv-x="1024" />

    
    <glyph glyph-name="yinfu2" unicode="&#58887;" d="M319.123-27.696A147.2 102.8 45.001 1 1 527.292 180.48a147.2 102.8 45.001 1 1-208.169-208.176zM555.8 813.1s132.1-117 201.5-255.3c61-121.4-39-342.8-35.1-341.2 0 0 113.8 271.8-159.5 398M769.2 563.7C699.4 702.7 570.1 818.1 564.6 823c-1.1 1-2.3 1.7-3.6 2.3-2.2 4.1-6.6 6.9-11.6 6.9-7.3 0-13.2-5.9-13.2-13.2v-628.5c-45.4 44.6-132.7 30.4-195-31.9-29.7-29.7-49.6-65.9-56-101.9-6.7-37.8 2-71 24.6-93.6 17.9-17.9 42.4-26.5 69.5-26.5 41.3 0 88.3 20.1 126.1 57.9 29.7 29.7 49.6 65.9 56 101.9 2.4 13.4 2.8 26.2 1.4 38.2V600C667.7 549.9 724.6 472 732 368.3c3.8-53-6.9-99.9-14.6-125.7-1-2.6-1.9-5.3-2.9-8-6-16.4-7.8-21.3-1.2-27.6 2.5-2.4 5.8-3.7 9.2-3.7 1.7 0 3.5 0.3 5.2 1 3.2 1.3 5.7 3.9 7.1 7.1 0.4 1 4 9.7 8.3 24.2 52.5 147.7 61.3 258 26.1 328.1z m-234-462.8c-5.5-30.7-22.7-61.9-48.6-87.9-52.2-52.2-123.1-66.3-158.1-31.4-16.3 16.3-22.4 41.2-17.2 70.2 5.5 30.7 22.7 61.9 48.6 87.9 32.8 32.8 73 50.6 107 50.6 20.1 0 38.1-6.2 51-19.2 10-10 16.1-23.2 18.2-38.6v-0.1c0-1.1 0.1-2.1 0.4-3.1 0.9-8.8 0.5-18.3-1.3-28.4zM756.8 385c-9.3 78.1-50.8 178.1-188.5 241.6-1.8 0.8-3.8 1.2-5.7 1.2V788.6c36.7-35.2 129.3-130.1 182.9-236.8 20.1-40 23.9-95.8 11.3-166.8z"  horiz-adv-x="1024" />

    
    <glyph glyph-name="erweima" unicode="&#58941;" d="M924.672 800.768H539.648v-385.024h385.024V800.768z m-47.104-337.92H586.752V753.664h290.816v-290.816zM204.8 526.336h160.768V687.104H204.8v-160.768zM252.928 640h66.56v-66.56h-66.56V640zM882.688 352.256v-114.688H702.464V352.256H540.672v-385.024h10.24l32.768 1.024h5.12V303.104h65.536v-112.64h275.456V352.256zM654.336-36.864H778.24V161.792H654.336v-198.656z m48.128 151.552h28.672v-105.472h-28.672V114.688zM812.032 688.128H652.288v-159.744h159.744V688.128z m-47.104-112.64h-65.536v65.536h65.536v-65.536zM805.888-36.864h123.904V161.792H805.888v-198.656z m48.128 151.552h28.672v-105.472h-28.672V114.688zM92.16 413.696h387.072V800.768H92.16v-387.072z m47.104 339.968h293.888v-293.888H139.264V753.664zM204.8 75.776h160.768V236.544H204.8v-160.768zM252.928 189.44h66.56v-66.56h-66.56V189.44zM92.16-36.864h387.072V350.208H92.16v-387.072z m47.104 339.968h293.888v-293.888H139.264V303.104z"  horiz-adv-x="1024" />

    
    <glyph glyph-name="live" unicode="&#58896;" d="M678.4 785.8432a34.87744 34.87744 0 0 0 47.32416-51.17952L674.4576 683.40224h154.13248c69.91872 0 126.73024-56.1152 127.86176-125.76768l0.01536-2.11968v-465.01888c0-70.6304-57.25184-127.88224-127.87712-127.88224H200.80128c-70.62528 0-127.88224 57.25184-127.88224 127.88224V555.51488c0 70.6304 57.25696 127.88224 127.88224 127.88224h159.93344L309.47328 734.6688a34.87744 34.87744 0 0 0 47.31904 51.17952l2.00192-1.85344 93.73184-93.73184c2.0992-2.0992 3.88096-4.40832 5.33504-6.8608h119.47008a34.944 34.944 0 0 0 5.34016 6.8608l93.73184 93.73184z m150.18496-172.19584H200.80128c-32.1024 0-58.12736-26.02496-58.12736-58.13248v-465.01888c0-32.1024 26.02496-58.12736 58.12736-58.12736h627.78368c32.1024 0 58.12736 26.02496 58.12736 58.12736V555.51488c0 32.1024-26.02496 58.13248-58.12736 58.13248zM406.72256 451.3536a58.12736 58.12736 0 0 1-8.28416-29.90592v-196.88448c0-32.1024 26.02496-58.12736 58.12736-58.12736 10.53184 0 20.86912 2.8672 29.9008 8.28416l164.0704 98.44224c27.53024 16.51712 36.4544 52.224 19.93728 79.74912a58.12736 58.12736 0 0 1-19.93728 19.93728L486.47168 471.296c-26.61376 15.96416-60.86144 8.15616-78.03904-17.24928l-1.71008-2.688z m61.46048-50.43712l129.8432-77.89568-129.8432-77.91104v155.8016z"  horiz-adv-x="1024" />

    
    <glyph glyph-name="xiangji" unicode="&#58881;" d="M844.9 691.8H716.7l-58.3 64.7c-5 5.5-12.1 8.7-19.5 8.7H380.1c-7.2 0-14.1-3-19-8.2l-61.9-65.2h-120c-63.4 0-115-51.6-115-115v-460.5c0-63.4 51.6-115 115-115h665.7c63.4 0 115 51.6 115 115V576.9c0 63.4-51.6 114.9-115 114.9z m62.5-575.4c0-34.4-28-62.4-62.4-62.4H179.2c-34.4 0-62.4 28-62.4 62.4V576.9c0 34.4 28 62.4 62.4 62.4h133.3c0.3 0 0.6 0.1 0.9 0.1h0.4c0.3 0 0.6 0.1 0.9 0.1 0.1 0 0.2 0 0.3 0.1 0.3 0.1 0.6 0.1 0.9 0.2 0.1 0 0.2 0.1 0.3 0.1 0.3 0.1 0.6 0.1 0.9 0.2 0.1 0 0.3 0.1 0.4 0.1 0.3 0.1 0.5 0.2 0.8 0.2 0.2 0.1 0.3 0.1 0.5 0.2s0.5 0.2 0.7 0.2c0.2 0.1 0.4 0.2 0.6 0.2 0.2 0.1 0.4 0.1 0.5 0.2 0.2 0.1 0.5 0.2 0.7 0.3 0.1 0.1 0.3 0.1 0.4 0.2 0.3 0.1 0.6 0.3 0.8 0.4 0.1 0 0.2 0.1 0.3 0.1 0.3 0.2 0.6 0.3 0.9 0.5 0.1 0 0.2 0.1 0.2 0.1 0.3 0.2 0.6 0.4 0.8 0.5 0.1 0.1 0.2 0.1 0.2 0.2 0.3 0.2 0.5 0.4 0.8 0.5 0.1 0.1 0.2 0.2 0.3 0.2 0.2 0.2 0.4 0.3 0.6 0.5 0.1 0.1 0.3 0.2 0.4 0.3 0.2 0.1 0.3 0.3 0.5 0.4l0.5 0.5c0.1 0.1 0.3 0.2 0.4 0.4l0.6 0.6 0.2 0.2 61.9 65.2h235.8l58.3-64.7c0.3-0.4 0.7-0.7 1-1.1l0.1-0.1c0.3-0.3 0.6-0.6 0.9-0.8 0.2-0.1 0.3-0.3 0.5-0.4 0.2-0.1 0.3-0.3 0.5-0.4 0.2-0.2 0.4-0.3 0.6-0.5 0.1-0.1 0.3-0.2 0.4-0.3 0.2-0.2 0.4-0.3 0.7-0.5 0.1-0.1 0.3-0.2 0.4-0.3 0.2-0.2 0.5-0.3 0.7-0.5 0.1-0.1 0.3-0.2 0.4-0.2 0.2-0.1 0.5-0.3 0.7-0.4 0.2-0.1 0.3-0.2 0.5-0.3 0.2-0.1 0.4-0.2 0.7-0.3l0.6-0.3 0.6-0.3c0.3-0.1 0.5-0.2 0.8-0.3 0.1 0 0.2-0.1 0.4-0.1 0.4-0.1 0.8-0.3 1.1-0.4h0.1c2.5-0.8 5.2-1.2 7.9-1.2h139.9c34.4 0 62.4-28 62.4-62.4v-460.1zM515.6 141.79999999999995c-113.8 0-206.3 92.6-206.3 206.3 0 113.8 92.6 206.3 206.3 206.3 113.8 0 206.3-92.6 206.3-206.3 0-113.8-92.6-206.3-206.3-206.3z m0 360.1c-84.8 0-153.8-69-153.8-153.8s69-153.8 153.8-153.8 153.8 69 153.8 153.8-69 153.8-153.8 153.8zM818.3 526.4m-34.3 0a34.3 34.3 0 1 1 68.6 0 34.3 34.3 0 1 1-68.6 0Z"  horiz-adv-x="1024" />

    
    <glyph glyph-name="qianbao2" unicode="&#58937;" d="M919.04 738.816H124.416c-67.584 0-122.88-55.296-122.88-122.88v-519.168c0-56.32 46.08-102.4 102.4-102.4h815.104c56.32 0 102.4 46.08 102.4 102.4V636.4159999999999c0 56.32-46.08 102.4-102.4 102.4z m75.264-621.568c0-50.688-41.472-92.16-92.16-92.16H122.88c-50.688 0-92.16 41.472-92.16 92.16v496.64c0 50.688 41.472 92.16 92.16 92.16h779.264c50.688 0 92.16-41.472 92.16-92.16v-496.64zM994.304 256h-380.416c-47.616 0-87.04 39.424-87.04 87.04v20.48c0 47.616 39.424 87.04 87.04 87.04h380.416v37.888h-369.152c-73.728 0-134.144-60.416-134.144-134.144 0-73.728 60.416-134.144 134.144-134.144h369.152v35.84zM846.336 354.304m-53.76 0a53.76 53.76 0 1 1 107.52 0 53.76 53.76 0 1 1-107.52 0Z"  horiz-adv-x="1024" />

    
    <glyph glyph-name="sousuo" unicode="&#59114;" d="M483.153 61.86C288.664 61.86 131 219.487 131 413.93 131 608.373 288.664 766 483.153 766c194.49 0 352.154-157.627 352.154-352.07 0-194.443-157.665-352.07-352.154-352.07z m0 54.5c164.383 0 297.64 133.227 297.64 297.57S647.537 711.5 483.154 711.5c-164.382 0-297.64-133.227-297.64-297.57s133.258-297.57 297.64-297.57zM693.208 162.957c-10.688 10.598-10.76 27.851-0.159 38.537 10.6 10.686 27.858 10.757 38.546 0.16L883.937 50.6c10.688-10.598 10.76-27.851 0.16-38.537-10.601-10.685-27.859-10.757-38.547-0.159L693.208 162.957z"  horiz-adv-x="1024" />

    
    <glyph glyph-name="yinfu3" unicode="&#58897;" d="M594.773333 462.933333a93.866667 93.866667 0 0 1-50.176 10.069334c-1.706667 10.325333-3.498667 20.565333-5.205333 30.805333l-3.242667 18.944c-2.645333 15.872-6.656 33.024-10.837333 51.2-1.536 7.082667-3.242667 14.336-4.864 21.589333a312.32 312.32 0 0 1 44.629333 54.357334c13.653333 21.845333 23.296 55.722667 13.994667 82.090666-21.248 60.416-69.888 31.573333-76.8-16.042666l-0.682667-4.352c-5.12-34.133333 1.877333-74.752 10.325334-113.578667-9.728-9.557333-19.712-18.773333-29.525334-27.818667C414.890667 508.245333 358.4 435.2 384.597333 340.48c21.418667-78.336 93.866667-129.621333 177.322667-103.509333l1.877333 0.597333a1381.888 1381.888 0 0 0 0-159.146667 65.450667 65.450667 0 0 1-49.493333 19.882667c-32.170667 0-58.282667-18.773333-58.282667-41.898667s26.112-41.984 58.282667-41.984 58.282667 18.773333 58.282667 41.984a30.634667 30.634667 0 0 1-2.218667 11.434667c5.973333 42.666667 4.352 116.224 1.621333 172.544a140.202667 140.202667 0 0 1 74.069334 67.413333 115.882667 115.882667 0 0 1-51.285334 155.136z m-85.333333 247.466667l0.682667 4.437333c2.56 17.066667 5.546667 37.205333 15.872 42.666667a13.653333 13.653333 0 0 0 7.082666 1.706667 29.269333 29.269333 0 0 0 9.898667-2.048A45.482667 45.482667 0 0 0 571.733333 729.514667c8.533333-23.808-1.024-55.808-13.312-75.434667a294.997333 294.997333 0 0 0-39.68-49.237333c-8.021333 36.608-14.08 74.581333-9.386666 105.642666z m50.090667-466.090667a134.656 134.656 0 0 0-102.4 8.533334c-74.581333 38.229333-85.333333 123.050667-62.464 190.208 17.066667 51.2 54.101333 85.333333 93.098666 121.173333 8.533333 8.021333 17.066667 16.128 25.6 24.405333l3.84-17.066666c4.096-18.090667 8.021333-35.242667 10.666667-51.2l3.242667-18.944c1.792-10.154667 3.498667-20.309333 5.205333-30.464a111.872 111.872 0 0 1-12.544-3.072A90.88 90.88 0 0 1 469.333333 422.912a75.434667 75.434667 0 0 1 33.109334-101.034667l3.84 6.826667a68.266667 68.266667 0 0 0-29.781334 90.794667 83.370667 83.370667 0 0 0 49.749334 42.069333 78.336 78.336 0 0 0 11.349333 2.730667c8.533333-48.213333 16.213333-97.365333 21.162667-146.346667 1.365333-13.738667 3.242667-40.533333 4.693333-72.192z m79.018666 66.901334a132.778667 132.778667 0 0 0-67.242666-62.634667c-2.048 39.765333-4.437333 69.205333-4.522667 70.058667-4.949333 48.981333-12.629333 98.304-20.736 146.602666a85.333333 85.333333 0 0 0 45.056-9.301333 108.202667 108.202667 0 0 0 47.36-144.64zM589.568 452.266667a82.432 82.432 0 0 1-44.117333 9.813333l-9.813334-0.597333-1.450666 9.386666-4.693334 30.805334c-1.536 10.325333-2.986667 20.650667-5.12 30.72L518.485333 563.2c-1.792 10.154667-4.096 20.394667-6.229333 30.634667l-0.938667 4.608 3.242667 3.072a359.936 359.936 0 0 1 32.682667 35.925333 132.522667 132.522667 0 0 1 23.466666 40.96 88.576 88.576 0 0 1 4.010667 45.482667c-3.754667 14.08-11.264 30.208-23.466667 35.072a21.589333 21.589333 0 0 1-18.773333-2.304 46.165333 46.165333 0 0 1-15.104-15.530667 62.72 62.72 0 0 1-8.533333-21.162667 112.298667 112.298667 0 0 1-2.048-11.690666c-0.512-3.925333-0.853333-7.850667-1.109334-11.861334a385.450667 385.450667 0 0 1 11.264-97.109333l0.682667-2.986667-2.133333-1.962666c-16.384-15.445333-33.024-30.634667-48.810667-46.08a396.458667 396.458667 0 0 1-43.52-50.005334A229.034667 229.034667 0 0 1 392.533333 440.405333a161.194667 161.194667 0 0 1-8.533333-64.256 174.421333 174.421333 0 0 1 16.554667-62.805333 151.04 151.04 0 0 1 40.021333-50.517333 124.245333 124.245333 0 0 1 58.453333-25.6 133.376 133.376 0 0 1 63.658667 5.802666l7.082667 2.304v-7.424q1.877333-39.765333 2.474666-79.786666c0-26.624 0-53.248-1.621333-80.213334l-1.194667-15.616-10.922666 11.690667C543.232 89.856 516.437333 93.866667 494.933333 87.125333a46.336 46.336 0 0 1-25.6-17.578666 21.248 21.248 0 0 1 0-24.576 43.946667 43.946667 0 0 1 24.746667-15.872 67.669333 67.669333 0 0 1 31.744-0.512 47.616 47.616 0 0 1 25.6 13.824 18.090667 18.090667 0 0 1 4.266667 20.053333l-1.024 3.072 0.512 4.352a738.901333 738.901333 0 0 1 3.072 83.712c0 28.501333-1.024 57.088-2.389334 85.333333l-0.512 11.264 10.496 4.096a128 128 0 0 1 51.2 36.010667 122.965333 122.965333 0 0 1 17.066667 26.453333 97.706667 97.706667 0 0 1 9.130667 29.44 95.402667 95.402667 0 0 1 0 31.146667 100.010667 100.010667 0 0 1-10.069334 30.549333 110.933333 110.933333 0 0 1-18.261333 25.6 115.626667 115.626667 0 0 1-25.344 18.773334z m10.496 20.394666a139.178667 139.178667 0 0 0 31.829333-22.357333 133.376 133.376 0 0 0 23.722667-30.976 124.842667 124.842667 0 0 0 13.397333-36.864 119.466667 119.466667 0 0 0 1.792-39.338667 122.282667 122.282667 0 0 0-10.410666-38.314666 145.066667 145.066667 0 0 0-20.48-33.28 153.6 153.6 0 0 0-62.549334-46.165334l9.984 15.36c1.365333-28.928 2.304-57.856 2.389334-87.04 0-14.506667 0-29.098667-1.109334-43.776a402.346667 402.346667 0 0 0-4.181333-44.544l-0.853333 7.509334a45.482667 45.482667 0 0 0 1.621333-27.392 49.578667 49.578667 0 0 0-12.970667-22.698667 73.898667 73.898667 0 0 0-41.130666-20.053333 91.818667 91.818667 0 0 0-43.52 3.242666 66.048 66.048 0 0 0-36.096 27.221334 41.728 41.728 0 0 0-6.058667 24.064 42.666667 42.666667 0 0 0 8.533333 22.869333 64.085333 64.085333 0 0 0 36.864 23.210667 87.722667 87.722667 0 0 0 41.557334 0 67.328 67.328 0 0 0 36.437333-20.992l-12.202667-3.925334c2.56 25.6 3.242667 52.48 3.328 78.848s-0.597333 52.906667-1.621333 79.445334l7.424-5.12a145.066667 145.066667 0 0 0-68.949333-5.546667 134.912 134.912 0 0 0-62.805334 28.501333 159.744 159.744 0 0 0-42.666666 53.930667 183.552 183.552 0 0 0-17.066667 66.389333 173.141333 173.141333 0 0 0 9.472 68.266667A237.824 237.824 0 0 0 415.146667 503.466667a418.133333 418.133333 0 0 0 44.288 51.2c16.042667 16.042667 32.426667 31.061333 48.554666 46.506666l-1.536-4.949333a393.813333 393.813333 0 0 0-12.202666 99.925333c0 4.266667 0.512 8.533333 1.109333 12.8a119.466667 119.466667 0 0 0 2.133333 12.714667 74.496 74.496 0 0 0 9.813334 24.917333 59.733333 59.733333 0 0 0 19.2 19.712 34.133333 34.133333 0 0 0 29.013333 3.242667 44.202667 44.202667 0 0 0 21.162667-18.858667l3.498666-5.888c0.938667-1.962667 1.706667-4.010667 2.645334-6.058666a68.266667 68.266667 0 0 0 4.437333-12.8A101.12 101.12 0 0 0 583.68 674.133333a134.4 134.4 0 0 0-10.325333-24.234666 233.898667 233.898667 0 0 0-13.994667-21.589334 357.802667 357.802667 0 0 0-32.938667-38.656L529.066667 597.333333c2.474667-10.069333 5.034667-20.053333 7.338666-30.378666l6.997334-30.805334c4.864-20.48 8.021333-40.96 12.032-61.44l-11.178667 8.533334a103.594667 103.594667 0 0 0 55.808-10.154667zM498.090667 712.277333a207.957333 207.957333 0 0 0 9.216 31.744 44.117333 44.117333 0 0 0 10.325333 16.213334 20.48 20.48 0 0 0 10.24 5.376 25.6 25.6 0 0 0 10.496 0 54.954667 54.954667 0 0 0 16.298667-6.912 52.736 52.736 0 0 0 13.312-11.690667 57.002667 57.002667 0 0 0 11.349333-32.341333 121.856 121.856 0 0 0-17.066667-63.317334c-5.376-9.386667-11.690667-18.090667-17.92-26.88L526.250667 597.333333l-10.325334-15.104-8.533333 20.394667a225.621333 225.621333 0 0 0-8.533333 25.6 152.32 152.32 0 0 0-5.12 27.136 141.141333 141.141333 0 0 0 0 28.16 193.450667 193.450667 0 0 0 4.352 28.757333z m22.613333-3.498666a141.141333 141.141333 0 0 1 1.109333-24.661334l3.413334-25.002666c1.109333-8.533333 2.133333-17.066667 2.645333-25.6s0.853333-17.578667 1.194667-26.453334l-18.346667 5.290667a168.789333 168.789333 0 0 1 23.808 20.138667A185.770667 185.770667 0 0 1 553.557333 657.066667a95.914667 95.914667 0 0 1 12.629334 27.306666 82.261333 82.261333 0 0 1 3.498666 29.696 41.130667 41.130667 0 0 1-34.133333 39.509334 7.936 7.936 0 0 1-8.533333-2.730667 31.317333 31.317333 0 0 1-4.266667-11.52c-1.024-9.557333-1.28-19.797333-2.218667-30.549333zM563.2 233.472a145.066667 145.066667 0 0 0-68.266667-2.901333 139.349333 139.349333 0 0 0-32.597333 10.837333 110.250667 110.250667 0 0 0-14.933333 8.533333l-7.168 4.522667-6.741334 5.205333a136.533333 136.533333 0 0 0-41.216 52.992 170.666667 170.666667 0 0 0-13.397333 65.109334 202.581333 202.581333 0 0 0 41.130667 123.221333c26.453333 35.242667 60.757333 61.866667 91.136 91.733333l5.973333 5.802667 1.877333-8.533333c4.608-19.2 8.533333-38.912 12.714667-58.453334 2.218667-9.728 3.669333-19.541333 5.461333-29.269333l5.290667-29.354667 0.853333-5.034666-5.12-0.938667a87.296 87.296 0 0 1-42.666666-20.650667 81.322667 81.322667 0 0 1-24.832-39.765333 68.266667 68.266667 0 0 1 4.778666-45.482667 67.413333 67.413333 0 0 1 32.170667-31.317333l-12.714667-3.584 3.413334 6.997333 3.925333-12.629333a79.189333 79.189333 0 0 0-37.205333 36.522667 80.981333 80.981333 0 0 0-6.229334 53.248 93.866667 93.866667 0 0 0 27.904 46.08 100.181333 100.181333 0 0 0 48.469334 23.552l15.445333 2.645333 2.816-15.616c3.157333-18.090667 6.144-36.352 8.533333-54.613333s4.693333-36.608 6.656-55.04 3.498667-36.864 3.84-55.466667l2.133334-55.552v-9.045333l-8.533334-2.389334z m-6.912 21.845333l3.584 1.365334-7.765333-11.52-4.949334 54.357333c-1.365333 18.090667-4.266667 36.096-6.997333 54.101333s-5.632 36.010667-8.533333 53.930667l-8.533334 54.186667 18.176-12.970667a70.485333 70.485333 0 0 1-34.133333-15.189333 69.290667 69.290667 0 0 1-21.589333-30.378667 56.064 56.064 0 0 1 0.938666-36.949333 59.050667 59.050667 0 0 1 24.917334-29.269334l8.533333-5.12-4.608-7.594666-4.096-6.656-4.778667-7.850667-7.082666 4.181333a86.613333 86.613333 0 0 0-36.778667 41.386667 83.626667 83.626667 0 0 0-4.437333 54.272 93.866667 93.866667 0 0 0 29.269333 45.141333 97.962667 97.962667 0 0 0 48.384 22.357334l-4.181333-5.888-4.778667 29.354666c-1.706667 9.813333-3.072 19.712-5.290667 29.269334-4.096 19.370667-7.850667 38.656-12.373333 58.112l7.850667-2.304c-30.634667-29.781333-64.341333-57.258667-89.344-91.136a191.146667 191.146667 0 0 1-37.632-116.906667 147.882667 147.882667 0 0 1 13.397333-59.733333 112.554667 112.554667 0 0 1 38.741333-45.909334 126.208 126.208 0 0 1 113.834667-16.64zM648.533333 306.090667a145.066667 145.066667 0 0 0-32.170666-38.656 136.533333 136.533333 0 0 0-42.666667-24.405334l-7.936-3.328-0.512 8.533334-3.498667 54.186666c-0.768 18.090667-3.242667 36.010667-5.376 54.016-4.778667 36.096-10.24 72.021333-16.469333 107.861334l-0.938667 5.546666 6.570667 1.536a85.333333 85.333333 0 0 0 58.197333-8.533333A112.042667 112.042667 0 0 0 648.533333 422.4a106.069333 106.069333 0 0 0 17.066667-58.453333 122.026667 122.026667 0 0 0-17.066667-57.856z m-20.48 10.410666a94.976 94.976 0 0 1 6.485334 22.954667 102.4 102.4 0 0 1 0 23.381333 122.197333 122.197333 0 0 1-13.312 43.946667 105.216 105.216 0 0 1-30.634667 34.986667 88.490667 88.490667 0 0 1-44.629333 17.066666l5.632 7.168c5.973333-35.925333 11.690667-71.936 16.384-108.117333 2.133333-18.176 4.608-36.266667 5.461333-54.528l3.413333-54.698667-8.533333 5.376a125.013333 125.013333 0 0 1 59.904 62.464z"  horiz-adv-x="1024" />

    
    <glyph glyph-name="pinglun4" unicode="&#59066;" d="M512 384m-450.56 0a450.56 450.56 0 1 1 901.12 0 450.56 450.56 0 1 1-901.12 0ZM225.28 97.27999999999997h286.72v-163.84H148.6848a40.96 40.96 0 0 0-27.19744 71.5776L225.28 97.27999999999997zM276.48 384m-71.68 0a71.68 71.68 0 1 1 143.36 0 71.68 71.68 0 1 1-143.36 0ZM512 384m-71.68 0a71.68 71.68 0 1 1 143.36 0 71.68 71.68 0 1 1-143.36 0ZM747.52 384m-71.68 0a71.68 71.68 0 1 1 143.36 0 71.68 71.68 0 1 1-143.36 0Z"  horiz-adv-x="1024" />

    
    <glyph glyph-name="yinfu4" unicode="&#58928;" d="M458.4 5.6c-90.4 0-164.8 73.6-164.8 164.8S368 334.4 458.4 334.4s164.8-73.6 164.8-164.8-73.6-164-164.8-164z m0 274.4c-60.8 0-109.6-49.6-109.6-109.6s49.6-109.6 109.6-109.6S568 109.6 568 169.6 519.2 280 458.4 280zM623.2 728v-557.6c0-13.6-10.4-24-24-24h-16c-13.6 0-24 10.4-24 24V728c0 13.6 10.4 24 24 24h16c13.6 0 24-10.4 24-24zM458.4 169.6m-120 0a120 120 0 1 1 240 0 120 120 0 1 1-240 0ZM675.2 600.8L568.8 707.2c-12.8 12.8-12.8 32.8 0 45.6 12.8 12.8 32.8 12.8 45.6 0l106.4-106.4c12.8-12.8 12.8-32.8 0-45.6-12.8-12.8-32.8-12.8-45.6 0z"  horiz-adv-x="1024" />

    
    <glyph glyph-name="zhibo" unicode="&#58898;" d="M693.894718 713.766158H824.709729c96.689356 0 170.628275-79.626528 170.628276-170.628275V42.628275c0-96.689356-73.938919-170.628275-170.628276-170.628275H199.07272c-96.689356 0-170.628275 79.626528-170.628276 170.628275V543.137883c0 96.689356 73.938919 170.628275 170.628276 170.628275h125.127402L255.948812 844.581169c-5.687609 17.062828 0 39.813264 17.062827 45.500874s39.813264 5.687609 45.500873-11.375219l85.314138-159.253057h210.44154L699.582327 878.706824c11.375218 17.062828 28.438046 22.750437 45.500874 11.375219 17.062828-11.375218 22.750437-34.125655 17.062827-51.188483l-68.25131-125.127402zM199.07272 639.827239c-56.876092 0-96.689356-45.500873-96.689356-102.376965V42.628275c0-28.438046 11.375218-51.188483 28.438046-68.25131 17.062828-17.062828 45.500873-28.438046 68.25131-28.438046h625.637009c28.438046 0 51.188483 11.375218 68.25131 28.438046 17.062828 17.062828 28.438046 45.500873 28.438046 68.25131V543.137883c0 56.876092-45.500873 102.376965-96.689356 102.376965H199.07272zM369.700995 440.760918v-284.380459c0-22.750437 11.375218-39.813264 28.438046-51.188483 17.062828-11.375218 39.813264-11.375218 56.876092 0l233.191976 142.19023c17.062828 11.375218 28.438046 28.438046 28.438046 45.500873s-11.375218 39.813264-28.438046 45.500873L455.015133 491.9494c-17.062828 5.687609-39.813264 5.687609-56.876092 0S369.700995 463.511354 369.700995 440.760918z m261.630022-142.19023l-193.378712-119.439792V418.010481l193.378712-119.439793z"  horiz-adv-x="1024" />

    
    <glyph glyph-name="gongnengguanli" unicode="&#58925;" d="M464 752H160a16 16 0 0 1-16-16v-304c0-8.832 7.168-16 16-16h304a16 16 0 0 1 16 16V736a16 16 0 0 1-16 16z m-52.032-268.032H212.032V683.968h200.064v-199.936zM464 352H160a16 16 0 0 1-16-16v-304c0-8.768 7.168-16 16-16h304a16 16 0 0 1 16 16V336a16 16 0 0 1-16 16z m-52.032-268.032H212.032V284.032h200.064v-200.064zM864 352H560a16 16 0 0 1-16-16v-304c0-8.768 7.232-16 16-16h304a16 16 0 0 1 16 16V336a16 16 0 0 1-16 16z m-52.032-268.032H612.032V284.032h199.936v-200.064zM938.24 595.328a16 16 0 0 0 0-22.656L723.392 357.76a16 16 0 0 0-22.656 0L485.76 572.8a16 16 0 0 0 0 22.592l215.04 214.976a16 16 0 0 0 22.592 0z m-84.8-11.328l-141.44 141.44-141.44-141.44 141.44-141.44 141.44 141.44z"  horiz-adv-x="1024" />

    
    <glyph glyph-name="lianjie" unicode="&#58906;" d="M529.408 486.4a51.2 51.2 0 0 1 0-72.192c29.013333-29.184 29.013333-76.288 0-105.472L378.88 156.672a74.709333 74.709333 0 1 0-105.472 105.472l33.792 36.352a51.2 51.2 0 1 1-72.704 72.192l-33.792-37.888a177.152 177.152 0 0 1 250.368-250.368l151.04 151.04a177.152 177.152 0 0 1 0 250.368 51.114667 51.114667 0 0 1-72.704 2.56zM809.984 691.2a181.248 181.248 0 0 1-250.368 0L409.6 542.208a177.152 177.152 0 0 1 0-250.368 51.2 51.2 0 1 1 72.704 72.192 74.794667 74.794667 0 0 0 0 105.472l151.04 151.04a76.330667 76.330667 0 0 0 105.472 0c29.013333-29.184 29.013333-76.288 0-105.472l-36.352-36.352a51.2 51.2 0 1 1 72.192-72.704l36.352 36.352a177.152 177.152 0 0 1-1.024 248.832z"  horiz-adv-x="1024" />

    
    <glyph glyph-name="jian" unicode="&#58893;" d="M512-128C229.238154-128 0 101.238154 0 384S229.238154 896 512 896s512-229.238154 512-512-229.238154-512-512-512z m236.307692 551.384615H275.692308a39.384615 39.384615 0 1 1 0-78.76923h472.615384a39.384615 39.384615 0 0 1 0 78.76923z"  horiz-adv-x="1024" />

    


  </font>
</defs>
</svg>
